# xmcd CD database file
#
# Track frame offsets:
#	150
#	17025
#	39230
#	63385
#	108505
#	145365
#	158360
#
# Disc length: 2614 seconds
#
# Revision: 1
# Processed by: cddbd v1.5.1PL0 Copyright (c) Steve Scherf et al.
# Submitted via: CDex 1.51
#
DISCID=510a3407
DTITLE=Guitars Unlimited - Live at the Meridien - Etoile, Paris [CD1)
DYEAR=1996
DGENRE=Jazz
TTITLE0=Four Brothers
TTITLE1=Over the rainbow
TTITLE2=Li'l Darling
TTITLE3=36 Avril
TTITLE4=Diabolo
TTITLE5=Laura
TTITLE6=Billie's Bounce
EXTD=YEAR: 1996
EXTT0=
EXTT1=
EXTT2=
EXTT3=
EXTT4=
EXTT5=
EXTT6=
PLAYORDER=
